<svg aria-hidden="true" style="position: absolute; width: 0; height: 0; overflow: hidden;" version="1.1" xmlns="http://www.w3.org/2000/svg" xmlns:xlink="http://www.w3.org/1999/xlink">
<defs>
<symbol id="icon-send" viewBox="0 0 32 32">
<path fill="#fff" style="fill: var(--color1, #fff)" d="M32 2.667l-32 15 10.227 3.156 15.773-12.323-11.998 13.488 0.010 0.003-0.012-0.003v7.345l5.735-5.576 7.265 2.242 5-23.333z"></path>
</symbol>
<symbol id="icon-close" viewBox="0 0 32 32">
<path d="M32 3.223l-3.223-3.223-12.777 12.777-12.777-12.777-3.223 3.223 12.777 12.777-12.777 12.777 3.223 3.223 12.777-12.777 12.777 12.777 3.223-3.223-12.777-12.777 12.777-12.777z"></path>
</symbol>
<symbol id="icon-Checkbox" viewBox="0 0 32 32">
<path stroke-linejoin="miter" stroke-linecap="butt" stroke-miterlimit="4" stroke-width="2" d="M4 1h24c1.657 0 3 1.343 3 3v24c0 1.657-1.343 3-3 3h-24c-1.657 0-3-1.343-3-3v-24c0-1.657 1.343-3 3-3z"></path>
</symbol>
<symbol id="icon-email" viewBox="0 0 24 32">
<path d="M20 8h-16c-1.1 0-1.99 0.9-1.99 2l-0.010 12c0 1.1 0.9 2 2 2h16c1.1 0 2-0.9 2-2v-12c0-1.1-0.9-2-2-2zM19.6 12.25l-7.070 4.42c-0.32 0.2-0.74 0.2-1.060 0l-7.070-4.42c-0.25-0.16-0.4-0.43-0.4-0.72 0-0.67 0.73-1.070 1.3-0.72l6.7 4.19 6.7-4.19c0.57-0.35 1.3 0.050 1.3 0.72 0 0.29-0.15 0.56-0.4 0.72z"></path>
</symbol>
<symbol id="icon-person" viewBox="0 0 32 32">
<path  d="M16 16c2.947 0 5.333-2.387 5.333-5.333s-2.387-5.333-5.333-5.333c-2.947 0-5.333 2.387-5.333 5.333s2.387 5.333 5.333 5.333zM16 18.667c-3.56 0-10.667 1.787-10.667 5.333v1.333c0 0.733 0.6 1.333 1.333 1.333h18.667c0.733 0 1.333-0.6 1.333-1.333v-1.333c0-3.547-7.107-5.333-10.667-5.333z"></path>
</symbol>
<symbol id="icon-phone" viewBox="0 0 24 32">
<path d="M19.635 18.487l-2.451-0.28c-0.589-0.067-1.167 0.135-1.582 0.55l-1.775 1.775c-2.731-1.389-4.969-3.618-6.359-6.359l1.785-1.785c0.415-0.415 0.618-0.994 0.55-1.582l-0.28-2.432c-0.116-0.975-0.936-1.708-1.92-1.708h-1.669c-1.090 0-1.997 0.907-1.93 1.997 0.511 8.24 7.102 14.821 15.332 15.332 1.090 0.068 1.997-0.839 1.997-1.93v-1.669c0.010-0.975-0.724-1.795-1.698-1.911z"></path>
</symbol>
</defs>
</svg>
<svg id="icon-checked" xmlns="http://www.w3.org/2000/svg" width="10" height="8" viewBox="0 0 10 8" fill="none">
  <path d="M8.44558 0.255056C8.61838 0.089653 8.84834 -0.00178848 9.08693 2.65108e-05C9.32551 0.0018415 9.55407 0.0967713 9.72436 0.264784C9.89466 0.432797 9.99337 0.660752 9.99968 0.900549C10.006 1.14034 9.91939 1.37323 9.75816 1.55005L4.86357 7.70436C4.7794 7.79551 4.67782 7.86865 4.5649 7.91942C4.45198 7.97018 4.33003 7.99754 4.20636 7.99984C4.08268 8.00214 3.95981 7.97935 3.8451 7.93282C3.73038 7.88629 3.62618 7.81698 3.53872 7.72903L0.292827 4.46564C0.202435 4.38096 0.129933 4.27884 0.0796475 4.16537C0.0293621 4.05191 0.00232279 3.92942 0.000143182 3.80522C-0.00203643 3.68102 0.0206883 3.55765 0.0669613 3.44248C0.113234 3.3273 0.182108 3.22267 0.269473 3.13483C0.356838 3.047 0.460905 2.97775 0.575465 2.93123C0.690026 2.88471 0.812734 2.86186 0.936267 2.86405C1.0598 2.86624 1.18163 2.89343 1.29449 2.94398C1.40734 2.99454 1.50892 3.06743 1.59315 3.15831L4.16189 5.73967L8.42227 0.28219C8.42994 0.272694 8.43813 0.263635 8.4468 0.255056H8.44558Z" fill="#F4F4FD"/>
</svg>